<?xml version="1.0" ?><svg clip-rule="evenodd" fill-rule="evenodd" image-rendering="optimizeQuality" shape-rendering="geometricPrecision" text-rendering="geometricPrecision" viewBox="0 0 500 500" xmlns="http://www.w3.org/2000/svg"><defs><linearGradient gradientUnits="userSpaceOnUse" id="a" x1="46.322" x2="378.946" y1="56.434" y2="378.836"><stop offset="0" stop-color="#008BFF"/><stop offset="1" stop-color="#0af"/></linearGradient></defs><g><path d="M453 283l-230-230c-2-2-5-3-7-3h-156c-6 0-10 4-10 10v156c0 2 1 5 3 7l230 230c4 4 11 4 14 0l156-156c4-3 4-10 0-14z" fill="url(#a)" stroke="#434242" stroke-width="10"/><circle fill="#434242" r="40" transform="matrix(.796 -.796 .796 .796 127.782 127.785)"/><circle fill="#fff" r="40" transform="matrix(.468 -.468 .468 .468 127.782 127.785)"/><path d="M156 283l86-85 7 7-86 85-7-7zm28 29l128-128 7 7-128 128-7-7zm29 28l58-58 7 7-58 58-7-7zm28 28l93-93 7 7-93 93-7-7zm28 28l111-111 7 8-111 111-7-8z" fill="#fff"/></g></svg>